<?xml version="1.0" encoding="UTF-8"?>
<!DOCTYPE svg PUBLIC "-//W3C//DTD SVG 1.1//EN" "http://www.w3.org/Graphics/SVG/1.1/DTD/svg11.dtd">
<!-- Creator: CorelDRAW 2019 (64-Bit) -->
<svg xmlns="http://www.w3.org/2000/svg" xml:space="preserve" width="0.166665in" height="0.166654in" version="1.1" style="shape-rendering:geometricPrecision; text-rendering:geometricPrecision; image-rendering:optimizeQuality; fill-rule:evenodd; clip-rule:evenodd"
viewBox="0 0 77.31 77.3"
 xmlns:xlink="http://www.w3.org/1999/xlink">
 <defs>
  <style type="text/css">
   <![CDATA[
    .fil0 {fill:#FEFEFE}
   ]]>
  </style>
 </defs>
 <g id="Layer_x0020_1">
  <metadata id="CorelCorpID_0Corel-Layer"/>
  <path class="fil0" d="M10.22 17.06c0,1.4 0.17,2.28 1.01,3.46l0.55 0.6c0.01,0.01 0.03,0.03 0.04,0.04 0.01,0.01 0.03,0.02 0.04,0.03 3.48,3.23 8.95,0.85 8.95,-4.06 0,-0.25 -0.05,-0.28 -0.07,-0.5l1.15 -0.07c2.11,0 3.19,0.67 3.67,2.66 0.31,1.28 0.36,4.48 0.36,5.98l0 45.63 -19.51 0 0 -64.42 64.43 0 0 64.42 -20.15 0 0 -47.72c0,-2.41 0.27,-5.53 2.42,-6.43 0.55,-0.23 1.78,-0.41 2.54,-0.41 0.41,0 0.5,0.07 0.94,0.07 -0.26,0.53 -0.06,2 0.1,2.56 0.24,0.83 0.57,1.28 1.05,1.9 1.58,2.04 5.02,2.59 7.36,0.66 0.4,-0.33 0.32,-0.2 0.66,-0.63 0.13,-0.17 0.16,-0.18 0.29,-0.36 0.44,-0.62 0.64,-1.01 0.83,-1.76 0.28,-1.05 0.24,-2.26 -0.17,-3.28 -0.23,-0.57 -0.6,-1.2 -1,-1.6 -0.46,-0.47 -0.82,-0.83 -1.45,-1.15 -0.58,-0.28 -1.24,-0.6 -2.07,-0.6l-47.01 0c-1.34,0 -2.57,0.66 -3.44,1.53 -0.44,0.44 -0.75,0.85 -1.03,1.42 -0.24,0.5 -0.5,1.27 -0.5,2.02zm-10.22 60.25l28.65 0 0 -61.32 2.16 0 0 61.32 2.3 0 0 -61.32 2.02 0 0 61.32 2.3 0 0 -61.32 2.02 0 0 61.32 2.09 0 0 -61.32 2.16 0 0 61.32 2.3 0 0 -61.32 2.02 0 0 61.32 29.08 0c0.16,0 0.22,-0.05 0.22,-0.22l0 -77.09 -77.31 0 0 77.3z"/>
 </g>
</svg>
