<?xml version="1.0" encoding="UTF-8"?>
<!DOCTYPE svg PUBLIC "-//W3C//DTD SVG 1.1//EN" "http://www.w3.org/Graphics/SVG/1.1/DTD/svg11.dtd">
<!-- Creator: CorelDRAW 2019 (64-Bit) -->
<svg xmlns="http://www.w3.org/2000/svg" xml:space="preserve" width="1.3926in" height="0.166665in" version="1.1" style="shape-rendering:geometricPrecision; text-rendering:geometricPrecision; image-rendering:optimizeQuality; fill-rule:evenodd; clip-rule:evenodd"
viewBox="0 0 724.71 86.73"
 xmlns:xlink="http://www.w3.org/1999/xlink">
 <defs>
  <style type="text/css">
   <![CDATA[
    .fil0 {fill:white}
   ]]>
  </style>
 </defs>
 <g id="Layer_x0020_1">
  <metadata id="CorelCorpID_0Corel-Layer"/>
  <g id="_1223605392">
   <path class="fil0" d="M169.84 7.42l1.74 4.13c0.83,2.49 4.48,11.43 4.91,13.26l-13.29 0c0.1,-1.25 6.17,-15.36 6.64,-17.39zm-18.37 31.84c-4.95,0 -12.07,-12.57 -14.41,-14.9 -0.76,-0.76 -1.42,-1.42 -2.2,-2.1 4.82,-0.11 8.99,-5.49 8.99,-9.77 0,-3.33 -0.22,-5.55 -2.4,-8.15 -1.25,-1.48 -3.56,-2.65 -5.91,-3.08 -1.55,-0.28 -14.96,-0.1 -17.68,-0.1l0 0.59c2.46,0 4.3,1.2 4.3,3.13l0 31.45c0,1.94 -1.88,3.13 -4.3,3.13l0 0.58 12.31 0 0 -0.58c-2.73,0 -4.3,-1.41 -4.3,-4.1l0 -31.84c0,-0.45 0.14,-0.59 0.58,-0.59 4.35,0 8.12,-0.6 10.8,2.1 3.24,3.26 3.33,11.23 -1.16,13.99 -2.22,1.37 -4.99,1.49 -8.47,1.49l0 0.59c3.64,0.08 7.19,6.91 9.52,10.02 0.52,0.69 0.85,1.26 1.37,1.95 2.34,3.12 4.36,6.23 9.48,6.93l13.24 0.05 0 -0.58c-4.95,-0.11 -1.78,-5.28 -0.86,-7.7l2.04 -5.19 14.85 0c0.19,0.82 0.59,1.76 0.92,2.6 0.66,1.7 2.79,6.92 2.79,8.15 0,1.44 -1.31,2.12 -2.74,2.15l0 0.58 12.51 0 0 -0.58c-3.91,-0.09 -4.94,-2.69 -5.97,-5.16l-4.38 -10.47c-2.56,-5.8 -5.1,-12.7 -7.7,-18.49l-1.68 -3.99c-0.34,-0.83 -0.04,-0.88 -0.99,-0.96 -0.68,2.94 -6.94,17.12 -8.32,20.4l-5.28 12.5c-0.39,0.93 -0.68,1.74 -1.1,2.62 -0.67,1.43 -2.48,3.35 -3.87,3.35z"/>
   <path class="fil0" d="M197.01 6.45l0 29.69c0,2.64 -2.19,3.32 -4.5,3.32l0 0.58 11.73 0 0 -0.58c-3.27,0 -4.52,-1.03 -4.5,-4.3l0 -26.37 22.72 24.17c0.37,0.37 0.64,0.6 0.96,1l5.66 6.06c0.45,0.59 0.33,0.78 1.35,0.81 0,-1.6 -0.39,-3.59 -0.39,-5.67l0 -30.47c0,-2.25 2.36,-2.93 4.3,-2.93l0 -0.59 -11.53 0 0 0.59c1.67,0 2.44,0.11 3.38,0.92 1.03,0.9 1.13,1.54 1.12,3.37l-0 26.37 -29.36 -31.4c-0.5,-0.52 -0.52,-0.76 -1.32,-0.83 0,2.23 0.39,3.89 0.39,6.25z"/>
   <path class="fil0" d="M497.99 8.21l0 27.35c0,2.87 -1.58,3.91 -4.5,3.91l0 0.58 11.53 0 0 -0.58c-3.13,0 -4.47,-1.2 -4.5,-4.29l0.01 -26.38c0.81,0.54 4.75,4.83 5.73,6 0.96,1.15 1.63,1.49 2.84,3.02 0.32,0.4 0.59,0.63 0.96,1 3.05,3.03 6.39,7 9.58,10.16 0.73,0.72 1.1,1.31 1.85,2.05 2.68,2.65 5.87,6.37 8.49,9.09 0.52,0.54 0.46,0.7 1.42,0.73 -0.03,-1.4 -0.39,-2.62 -0.39,-4.3l-0.2 -30.86c0,-3.05 1.82,-3.91 4.5,-3.91l0 -0.59 -11.53 0 0 0.59c3.03,0 4.51,0.96 4.5,4.29l-0.01 26.38 -4.25 -4.54c-0.72,-0.82 -1.51,-1.43 -2.23,-2.26 -0.03,-0.03 -0.06,-0.07 -0.09,-0.1 -0.03,-0.03 -0.06,-0.08 -0.09,-0.11l-4.13 -4.46c-0.41,-0.41 -0.67,-0.67 -1.08,-1.07l-5.47 -5.86c-2.51,-2.49 -5.98,-6.57 -8.7,-9.28 -0.63,-0.62 -3.9,-4.54 -4.45,-4.47 -0.68,0.08 0,1.88 0.01,3.64 0,1.43 0.19,2.62 0.19,4.3z"/>
   <path class="fil0" d="M93.42 38.29l-11.14 0 0 -35.36 11.14 0c9.74,0 15.16,7.74 15.3,17.61 0.14,9.6 -5.53,17.75 -15.3,17.75zm-19.15 -36.53c2.02,0 4.1,0.87 4.1,2.74l0 32.04c0,1.68 -1.88,2.93 -4.1,2.93l0 0.58c4.82,0 9.64,0 14.46,0 6.55,0 12.74,0.06 17.63,-4.25 1.18,-1.04 2.61,-2.43 3.47,-3.77 0.99,-1.55 1.73,-3.02 2.33,-4.89 0.32,-0.99 0.47,-1.88 0.67,-3.04 0.32,-1.89 0.35,-4.67 0.06,-6.63 -0.18,-1.2 -0.4,-2.12 -0.66,-3.05 -0.77,-2.76 -2.03,-4.94 -3.8,-6.94 -3.36,-3.79 -6.95,-5.33 -12.18,-6.19 -1.86,-0.31 -19.23,-0.11 -21.98,-0.11l0 0.59z"/>
   <path class="fil0" d="M634.81 1.76c2.65,0 4.3,1.14 4.3,3.91l0 29.89c0,2.75 -1.66,3.91 -4.3,3.91l0 0.58 12.31 0 0 -0.58c-2.46,0 -4.3,-1.16 -4.3,-3.52l0 -14.26 22.48 0 0 14.85c0,1.68 -1.88,2.93 -4.1,2.93l0 0.58 12.31 0 0 -0.58c-1.3,0 -2.2,-0.16 -2.97,-0.74 -0.53,-0.4 -1.33,-1.54 -1.33,-2.38l0 -31.25c0,-2.45 2.09,-3.32 4.3,-3.32l0 -0.59 -12.31 0 0 0.59c2.35,0 4.1,1.26 4.1,2.93l0 15.24 -22.48 0 0 -14.65c0,-1.09 0.61,-2.14 1.24,-2.66 0.81,-0.66 1.65,-0.85 3.05,-0.85l0 -0.59 -12.31 0 0 0.59z"/>
   <path class="fil0" d="M571.87 1.76c2.19,0 4.3,0.85 4.3,3.32l0 31.25c0,1.94 -1.88,3.13 -4.3,3.13l0 0.58 12.31 0 0 -0.58c-2.73,0 -4.3,-1.41 -4.3,-4.1l0 -31.84c0,-0.45 0.14,-0.59 0.59,-0.59 4.35,0 8.12,-0.6 10.8,2.1 3.24,3.26 3.33,11.23 -1.16,13.99 -2.23,1.37 -4.99,1.49 -8.48,1.49l0 0.59c3.15,0.07 6.31,5.26 8.25,8.16 1.9,2.84 4.69,7.37 7.66,9.14 3.11,1.86 4.81,1.64 9.5,1.64l0 -0.58c-4.53,0 -7.81,-4.14 -10.22,-7.37 -1.29,-1.73 -2.48,-3.31 -3.69,-5.1 -1.24,-1.84 -2.65,-3.32 -4.26,-4.73 2.66,-0.06 4.85,-1.71 6.21,-3.17 4.56,-4.89 4.23,-16.05 -5.53,-17.82 -1.55,-0.28 -14.96,-0.1 -17.68,-0.1l0 0.59z"/>
   <path class="fil0" d="M425.48 1.76c2.43,0 4.3,1.02 4.3,3.52l0 30.67c0,2.42 -1.81,3.52 -4.3,3.52l0 0.58 12.31 0 0 -0.58c-2.65,0 -4.3,-1.34 -4.3,-3.91l0 -32.62c4.4,0 8.78,-0.61 11.39,2.09 3.14,3.25 3.37,11 -1.07,13.89 -2.22,1.45 -4.97,1.59 -8.57,1.59l0 0.59c2.2,0.05 3.56,1.9 4.83,3.38l5.73 8.15c4.76,6.74 6.42,7.42 14.66,7.42l0 -0.58c-3.05,-0.07 -4.33,-1.39 -6.03,-2.76 -1.91,-1.53 -6.51,-7.86 -7.81,-9.78 -2.4,-3.55 -3.61,-3.93 -4.14,-4.65 4.69,-0.1 8.99,-5.3 8.99,-10.16 0,-4.32 -1.27,-7.66 -4.82,-9.64 -3.41,-1.9 -7.92,-1.3 -12.18,-1.3 -3,0 -5.99,0 -8.99,0l0 0.59z"/>
   <path class="fil0" d="M11.92 18.95l0 0.59c6.11,0 12.51,2.21 12.51,8.98l0 1.37c0,4.62 -3.4,8.01 -8.01,8.01l-6.26 0 0 -34.77c3.15,0 6.81,-0.43 9.04,2.1 2.75,3.11 2.54,9.38 -0.63,11.78 -1.64,1.24 -3.78,1.95 -6.65,1.95zm-9.77 -17.19c2.49,0 4.3,1.1 4.3,3.52l0 30.67c0,2.36 -1.84,3.52 -4.3,3.52l0 0.58c4.56,0 14.38,0.44 17.83,-0.35 4.86,-1.11 8.75,-4.42 8.75,-9.42 0,-3.45 -0.57,-5.75 -2.78,-8.16 -1.17,-1.27 -4.12,-3.12 -6.41,-3.17l0.25 -0.14c0.04,-0.02 0.21,-0.11 0.26,-0.13 0.29,-0.14 0.45,-0.2 0.67,-0.31 0.42,-0.21 0.67,-0.36 1.09,-0.67 5.76,-4.19 4.81,-14.07 -3.87,-16.09 -3.87,-0.9 -11.1,-0.44 -15.79,-0.44l0 0.59z"/>
   <path class="fil0" d="M320.33 7.42c0.59,0.43 0.37,0.43 0.95,1.98 0.29,0.78 0.53,1.43 0.79,2.14l4.91 13.26 -13.29 0c0.07,-0.89 1.23,-3.28 1.59,-4.27 0.52,-1.45 1.15,-2.95 1.71,-4.35l3.35 -8.76zm-19.94 32.04l0 0.58 11.34 0 0 -0.58c-4.84,-0.11 -1.95,-5 -0.87,-7.7l2.04 -5.19 14.85 0 1.88 5.15c0.95,2.75 4,7.63 -0.9,7.74l0 0.58 12.51 0 0 -0.58c-4.87,-0.11 -5.51,-4.35 -7.04,-7.81l-12.66 -30.32c-0.3,-0.79 -0.14,-0.86 -1.02,-0.94 -0.63,2.7 -2.99,7.72 -4.13,10.52 -0.7,1.7 -1.45,3.41 -2.21,5.22l-4.41 10.44c-0.69,1.75 -1.44,3.45 -2.2,5.22 -1.5,3.47 -2.3,7.67 -7.18,7.67z"/>
   <path class="fil0" d="M51.01 7.42c0.07,0.88 4.27,11.7 4.77,13.01 0.55,1.43 1.07,3.11 1.68,4.38l-13.49 0 3.41 -8.71c0.62,-1.53 1.11,-2.87 1.7,-4.35 0.42,-1.05 1.33,-3.89 1.93,-4.33zm-20.13 32.04l0 0.58 11.34 0 0 -0.58c-1.54,-0.03 -2.63,-0.61 -2.86,-2.03 -0.15,-0.89 0.8,-2.87 1.08,-3.66l2.76 -7.21 14.85 0c0.56,1.06 3.88,9.96 3.85,10.72 -0.07,1.42 -1.27,2.13 -2.87,2.17l0 0.58 12.7 0 0 -0.58c-2.25,0 -3.82,-1.06 -4.78,-2.45 -0.64,-0.93 -1.78,-3.91 -2.28,-5.14 -0.57,-1.4 -12.76,-30.15 -13.07,-31.48l-0.78 0c-0.03,1.34 -1.36,4.15 -1.87,5.36l-6.6 15.67c-1.55,3.46 -2.82,6.83 -4.36,10.29 -1.57,3.5 -2.22,7.64 -7.1,7.75z"/>
   <path class="fil0" d="M255.25 7.42c0.59,0.43 0.37,0.43 0.95,1.98l5.7 15.4 -13.29 0c0.08,-0.89 1.23,-3.28 1.59,-4.27l5.06 -13.11zm-19.94 32.04l0 0.58 11.34 0 0 -0.58c-4.84,-0.11 -1.95,-5 -0.87,-7.7l2.04 -5.19 14.85 0 1.88 5.15c0.95,2.75 4,7.63 -0.9,7.74l0 0.58 12.51 0 0 -0.58c-3.91,-0.09 -4.94,-2.69 -5.98,-5.16l-13.72 -32.97c-0.3,-0.79 -0.14,-0.86 -1.02,-0.94 -0.63,2.7 -2.98,7.72 -4.13,10.52 -0.69,1.7 -1.45,3.41 -2.21,5.22l-6.62 15.66c-1.5,3.47 -2.3,7.67 -7.18,7.67z"/>
   <path class="fil0" d="M402.23 7.42c0.35,1.5 2.51,6.77 3.2,8.72l3.25 8.67 -13.49 0 6.44 -16.42c0.2,-0.51 0.17,-0.66 0.59,-0.97zm-20.13 32.04l0 0.58 11.33 0 0 -0.58c-4.5,-0.1 -2.42,-4.02 -1.76,-5.67l2.74 -7.23 15.05 0c0.13,1.61 3.84,9.45 3.65,10.87 -0.19,1.44 -1.32,2.02 -2.87,2.02l0 0.58 12.7 0 0 -0.58c-3.83,0 -4.96,-2.55 -5.98,-4.97l-5.44 -13.12c-0.76,-1.8 -1.4,-3.45 -2.2,-5.23l-6.52 -15.76 -0.78 0c0,1.38 -1.33,4.16 -1.84,5.39l-12.06 28.57c-1.01,2.44 -2.13,5.11 -6.03,5.11z"/>
   <path class="fil0" d="M698.71 1.76c1.38,0 2.28,0.17 3.04,0.86 0.65,0.59 1.26,1.7 1.26,2.85l0 29.89c0,2.7 -1.57,4.1 -4.3,4.1l0 0.58 12.31 0 0 -0.58c-2.49,0 -4.3,-1.1 -4.3,-3.52l0 -33.01 6.45 0c4.59,0 7.23,3.62 7.23,8.21 0,3.61 -0.63,5.93 -3.49,8.04 -2.01,1.48 -6.77,2.13 -8.44,1.34 0.03,1.22 0.47,1.05 1.53,1.4 5.41,1.74 11.3,-0.48 13.65,-5.17 1.09,-2.17 1.04,-3.49 1.04,-5.8 0,-2.7 -1.2,-4.78 -2.42,-6.37 -3.24,-4.2 -10.5,-3.4 -14.58,-3.4 -3,0 -5.99,0 -8.99,0l0 0.59z"/>
   <path class="fil0" d="M357.86 1.76c1.46,0 2.38,0.23 3.16,0.94 0.71,0.64 1.14,1.66 1.14,2.96l0 30.08c0,1.07 -0.48,2.1 -1.18,2.72 -0.78,0.69 -1.64,0.99 -3.11,0.99l0 0.58 12.31 0 0 -0.58c-2.49,0 -4.3,-1.1 -4.3,-3.52l0 -33.01c4.29,0 9.25,-0.71 11.67,2.2 2.05,2.45 2.01,4.77 2.01,7.76 0,2.28 -1.6,4.98 -3.49,6.28 -2.4,1.66 -4.52,1.53 -8.44,1.53 0.07,0.83 -0.13,0.47 0.54,0.83 0.15,0.08 0.81,0.31 1.14,0.42 6.97,2.4 14.54,-2.92 14.54,-9.06 0,-3.72 -0.08,-5.28 -2.42,-8.32 -3.24,-4.2 -10.5,-3.4 -14.58,-3.4 -3,0 -5.99,0 -8.99,0l0 0.59z"/>
   <path class="fil0" d="M540.41 1.17l0 0.59c2.19,0 4.3,0.85 4.3,3.32l0 31.25c0,1.94 -1.88,3.13 -4.3,3.13l0 0.58 23.26 0c0.37,-1.59 3.04,-7.9 3.13,-8.98 -1.52,0.12 -1.01,2.6 -3.66,4.93 -1.55,1.36 -3.66,2.3 -6.5,2.3l-8.21 0 0 -16.41 9.77 0c0.79,0 1.57,0.72 1.89,1.24 0.76,1.25 -0.5,2.15 1.04,2.28l0 -8.99 -0.78 0c0,1.63 -0.25,3.52 -2.34,3.52l-9.58 0 0 -17 10.75 0c1.51,0 2.29,0.44 2.97,1.33 1.35,1.78 -0.42,2.82 1.33,2.97l0 -7.03c-1.43,0.12 -2.5,0.65 -5.08,0.79 -5.68,0.31 -12.2,0.19 -17.98,0.19z"/>
   <path class="fil0" d="M269.32 1.76c2.66,0 5.04,1 6.37,3.21l7.18 11.97c0.6,1.07 3.45,5.47 3.45,6.31 0,2.47 0.35,12.43 -0.36,14.1l-0.53 0.83c-0.26,0.29 -0.1,0.12 -0.29,0.3 -0.79,0.74 -1.6,0.99 -3.12,0.99l0 0.58 12.31 0 0 -0.58c-2.49,0 -4.3,-1.1 -4.3,-3.52l0 -12.7c0,-1.07 9.41,-15.85 10.94,-18.17 1.52,-2.3 3.53,-3.32 6.45,-3.32l0 -0.59 -12.51 0 0 0.59c5.48,0 1.57,5.21 0.84,6.51 -0.8,1.43 -1.56,2.67 -2.34,4.11l-4.56 8.14 -7.69 -14.19c-0.4,-0.74 -1.83,-2.79 -0.06,-4.1 0.59,-0.44 1.11,-0.46 2.08,-0.46l0 -0.59 -13.88 0 0 0.59z"/>
   <path class="fil0" d="M609.2 9.77c0,2.45 1.07,4.9 2.69,6.49 0.74,0.73 1.47,1.58 2.28,2.21l9.56 9.01c2.98,4.07 1.12,11.59 -6.71,11.59 -2.49,0 -4.5,-1.16 -5.59,-2.62 -2.34,-3.13 -1.23,-5.3 -1.84,-6.56 -0.33,0.12 -0.45,-0.34 -0.86,1.68 -0.19,0.9 -0.25,1.45 -0.32,2.42 -0.06,0.84 -0.25,1.32 -0.12,2.27 0.2,1.41 0.03,1.41 0.73,2.02 3.35,2.95 12.34,3.97 16.45,-0.13 0.74,-0.74 1.46,-1.63 1.9,-2.59 1.72,-3.69 1.46,-9.36 -2.01,-12.25 -0.96,-0.81 -1.46,-1.28 -2.33,-2.16 -1.7,-1.71 -8.55,-7.49 -9.4,-8.96 -4.2,-7.3 4.47,-12.72 9.87,-8.7 1.29,0.96 1.92,2.5 1.92,4.33l0.78 0 0 -6.84c-4.5,0 -10.08,-2.37 -14.37,2.24 -1.55,1.67 -2.63,4.15 -2.63,6.55z"/>
   <path class="fil0" d="M457.73 7.23c1.51,-0.12 0.28,-1.34 1.17,-2.74 0.39,-0.62 1.35,-1.56 2.35,-1.56l10.75 0 0 33.01c0,2.42 -1.81,3.52 -4.3,3.52l0 0.58 12.31 0 0 -0.58c-2.73,0 -4.3,-1.41 -4.3,-4.1l0 -32.43 10.55 0c2.5,0 3.13,2.13 3.13,4.3l0.59 0 0 -7.23c-1.15,0.55 -4.27,0.98 -6.06,0.98l-20.32 0c-1.54,0 -4.89,-0.51 -5.86,-0.98l0 7.23z"/>
   <path class="fil0" d="M336.95 78.33c0,-2.03 0.97,-4.68 2.15,-5.47l2.59 2.69c0.57,0.57 0.77,0.79 1.43,1.3 0.59,0.46 0.87,0.84 1.4,1.34l2.84 2.44c0.72,0.64 2.45,1.94 2.88,2.59 -1.67,1.12 -2.8,2.15 -5.08,2.15 -4.64,0 -8.21,-2.64 -8.21,-7.03zm0.19 -11.33c0,1.94 0.69,3.61 1.37,4.88 -5.37,1.25 -7.78,14.65 6.45,14.65 3.31,0 4.68,-1.03 6.64,-2.34 2.48,1.66 3.54,1.95 7.62,1.95 -0.3,-1.12 -0.74,-0.06 -3.37,-1.71 -1.07,-0.67 -1.88,-1.52 -2.89,-2.19 3.43,-6.48 -1.34,-9.18 2.93,-9.18 -0.12,-0.44 -0.05,-0.59 -0.59,-0.59l-6.06 0c-0.54,0 -0.47,0.15 -0.59,0.59 1.58,0 2.05,0.2 2.66,1.24 1.46,2.46 0.77,4.43 0.27,6.57 -0.53,-0.36 -0.72,-0.47 -1.22,-0.93 -0.48,-0.43 -0.7,-0.52 -1.17,-0.98 -0.51,-0.5 -0.61,-0.57 -1.15,-1l-3.35 -3.1c-8.84,-7.39 -3.82,-12.56 -0.92,-12.56l1.17 0c2.67,0 4.24,2.59 4.3,5.27l0.39 0c0.27,-1.15 0.59,-2.92 0.59,-4.3 -2.45,-1.64 -4.38,-2.83 -8.1,-2.04 -2.77,0.58 -4.99,3.07 -4.99,5.76z"/>
   <path class="fil0" d="M679.95 1.76c1.45,0 2.42,0.23 3.15,0.96 0.66,0.66 1.15,1.84 1.15,3.14l0 29.49c0,2.67 -1.61,4.1 -4.3,4.1l0 0.58 12.31 0 0 -0.58c-2.49,0 -4.3,-1.1 -4.3,-3.52l0 -30.67c0,-2.58 1.94,-3.52 4.3,-3.52l0 -0.59 -12.31 0 0 0.59z"/>
   <path class="fil0" d="M303.53 81.07l-1.44 -3.64c-0.66,-2.01 -3.45,-9.82 -3.45,-10.82 0,-0.45 0.07,-0.23 0.2,-0.78 0.93,-0.22 1.16,0.01 1.37,-0.78l-7.43 0c0.26,0.98 0.24,0.43 1.31,0.64 1.77,0.34 2.8,4.14 3.69,6.47l4.46 11.75c0.59,1.55 0.69,2.41 1.48,2.62 0.06,-2.57 1.62,-6.12 2.32,-8.23l2.1 -5.91c0.28,-0.8 0.59,-1.19 0.66,-2.07l0.39 0c0.06,0.76 2.64,7.08 3.1,8.23l2.78 7.19c0.27,0.69 0.06,0.6 0.77,0.79 0.3,-3.54 4.1,-13.08 5.45,-17.41 1.71,-5.48 3.05,-2.24 3.54,-4.08l-6.45 0c0.37,1.4 1.37,-0.27 1.37,1.76 0,1.06 -2.84,9.72 -3.39,11.65 -0.23,0.82 -0.15,1.22 -0.71,1.63 -0.31,-1.34 -0.96,-2.7 -1.48,-3.99 -0.56,-1.4 -0.98,-2.54 -1.53,-3.93 -0.55,-1.38 -0.99,-2.57 -1.54,-3.93 -0.35,-0.86 -1.12,-3.34 -1.7,-3.77 -0.58,0.43 -2.73,7.33 -3,8.13 -0.5,1.47 -2.78,7.51 -2.86,8.47z"/>
   <path class="fil0" d="M537.08 67l0 17c0,1.26 -1.11,1.73 -2.35,1.76l6.64 0c-3.35,-0.08 -2.54,-2.7 -2.54,-6.84 0,-3.13 0,-6.25 0,-9.38l4.54 4.25c0.4,0.4 0.66,0.68 1.07,1.08l8.12 7.7c1.69,1.42 3.76,3.88 4.83,4.16 -0.03,-1.21 -0.39,-3.49 -0.39,-5.67l0 -13.28c0,-0.81 0.22,-1.44 0.71,-1.83 1.08,-0.86 1.49,0.36 1.83,-0.91l-6.65 0 0 0.59c1.82,0 2.36,0.31 2.52,1.97l0.02 13.85 -16.08 -14.99c-0.72,-0.73 -1.43,-1.72 -2.49,-2 0,1.12 0.2,1.35 0.2,2.54z"/>
   <path class="fil0" d="M113.94 69.74l0 13.67c0,1.66 -0.91,2.31 -2.54,2.34l6.65 0c-3.36,-0.08 -2.54,-2.99 -2.54,-6.84 0,-3.13 0,-6.25 0,-9.38 0.52,0.35 0.66,0.61 1.12,1.02l8.06 7.57c0.85,0.65 1.51,1.41 2.3,2.2 0.4,0.4 0.67,0.68 1.07,1.08l4.67 4.31c0.57,0.46 0.61,0.81 1.34,1.01l-0.39 -18.95c0,-2.95 2.19,-1.42 2.54,-2.73l-6.64 0c0.35,1.31 2.21,-0.16 2.53,2.16l0.01 14.25 -17.15 -16.07c-0.52,-0.53 -0.6,-0.86 -1.42,-0.93 0.01,0.59 0.14,1.73 0.23,2.51 0.09,0.89 0.16,1.59 0.16,2.77z"/>
   <path class="fil0" d="M660.99 69.74l0 13.67c0,1.66 -0.91,2.31 -2.54,2.34l6.65 0c-3.36,-0.08 -2.54,-2.99 -2.54,-6.84 0,-3.13 0,-6.25 0,-9.38 0.51,0.35 0.66,0.61 1.12,1.02 0.48,0.42 0.69,0.5 1.17,0.98l9.18 8.79c0.4,0.4 0.66,0.69 1.08,1.07l0.42 0.36c1.74,1.45 2.53,2.57 4.24,3.97 0.57,0.46 0.61,0.81 1.34,1.01l-0.39 -18.56c0,-3.66 2.16,-1.7 2.54,-3.12l-6.64 0c0.35,1.31 2.21,-0.16 2.53,2.16l0.01 14.25c-0.52,-0.34 -0.66,-0.61 -1.13,-1.02 -0.47,-0.42 -0.69,-0.5 -1.17,-0.98 -0.74,-0.74 -1.47,-1.59 -2.25,-2.24l-12.6 -11.83c-0.52,-0.53 -0.6,-0.86 -1.42,-0.93 0.03,1.62 0.39,3.11 0.39,5.28z"/>
   <path class="fil0" d="M519.3 65.83c3.41,0 4.99,0.22 7.58,2.97 3.72,3.97 3.41,12.67 -2.88,15.78 -7.17,3.54 -15.29,-3.54 -12.5,-12.49 1.05,-3.36 4.27,-6.27 7.8,-6.27zm12.7 9.77c0,-1.86 -0.39,-3.32 -1.04,-4.63 -1.73,-3.44 -4.46,-5.45 -8.29,-6.17 -10.08,-1.91 -17.24,7.11 -13.46,15.41 1.17,2.57 3.4,4.45 6,5.53 0.82,0.34 1.25,0.47 2.27,0.66 2.57,0.48 4.81,0.41 7.35,-0.58 4.31,-1.67 7.17,-5.4 7.17,-10.22z"/>
   <path class="fil0" d="M74.46 65.83c3.41,0 4.99,0.22 7.58,2.97 2.86,3.06 3.19,8.92 0.83,12.46 -1,1.51 -2.02,2.49 -3.71,3.32 -7.17,3.54 -15.29,-3.54 -12.5,-12.49 1.04,-3.33 4.25,-6.27 7.8,-6.27zm-10.94 8.59c0,3.9 0.34,6.8 3.87,9.6 2.01,1.59 5.9,2.98 8.38,2.66 4.56,-0.6 8.23,-1.92 10.38,-6.43 1.3,-2.72 1.38,-6.45 0.04,-9.15 -0.55,-1.11 -1.39,-2.61 -2.32,-3.35 -1,-0.8 -2.05,-1.63 -3.32,-2.15 -4.34,-1.78 -9.31,-1.33 -13.05,1.48 -1.77,1.33 -3.99,4.38 -3.99,7.35z"/>
   <path class="fil0" d="M92.64 67.39l0 16.02c0,1.66 -0.92,2.31 -2.54,2.34l7.43 0c-1.37,-0.03 -2.54,-0.58 -2.54,-1.95l0 -17.58c2.37,0 5.24,-0.22 7.07,1.13 1.07,0.79 1.63,2.51 1.4,4 -0.64,4.18 -2.72,4.05 -7.3,4.05l0 0.59c1.66,0.04 2.86,1.38 3.64,2.42 3.88,5.2 3.99,7.73 11.02,7.73l0 -0.39c-2.68,-0.62 -3.24,-1.28 -5.41,-3.97l-3.1 -3.93c-0.57,-0.73 -0.9,-0.79 -1.26,-1.28 6.65,-1.55 7.16,-10.06 -0.3,-11.42 -2.22,-0.4 -8.01,-0.1 -10.65,-0.1 0.31,1.14 0.55,0.24 1.6,0.75 0.44,0.22 0.95,0.91 0.95,1.6z"/>
   <path class="fil0" d="M10.75 65.64c0.63,0.46 1.88,4.45 2.17,5.25 0.32,0.88 0.64,1.75 1.01,2.7 0.29,0.75 0.86,2.03 0.92,2.79l-8.21 0 3.13 -8.01c0.26,-0.66 0.92,-2.02 0.98,-2.73zm-10.75 20.51l5.47 -0.39c-2.81,-0.66 -1.87,-1.67 -0.06,-6.31 0.23,-0.59 0.51,-1.13 0.64,-1.7l9.38 0c0.3,0.57 2.35,5.91 2.35,6.45 0,1.3 -0.74,1.33 -1.76,1.56l8.01 0.39 0 -0.58c-2.42,0 -2.97,-1.02 -3.77,-3.07 -2.32,-5.91 -5.2,-12.23 -7.6,-18.19 -0.3,-0.74 -0.95,-2.72 -1.53,-3.16 -0.44,0.33 -5.13,12.07 -5.36,12.61 -0.91,2.17 -1.8,4.16 -2.68,6.3 -0.39,0.95 -0.88,2.22 -1.34,3.16 -1.36,2.8 -1.76,0.95 -1.76,2.92z"/>
   <path class="fil0" d="M504.83 75.79l-0.39 0c0,4.75 -3.56,9.57 -8.8,9.57 -3.28,0 -5.95,-0.4 -8.24,-3.29 -3.91,-4.93 -3.64,-15.45 2.78,-18.78 4.34,-2.25 11.82,-1.02 13.28,5.26l0.39 0c-0.04,-1.66 -0.59,-3.27 -0.59,-5.08 -4.34,-2.3 -4.8,-2.34 -9.77,-2.34 -4.52,0 -8.64,2.97 -10.42,7.17 -2.7,6.35 -0.63,14.62 6.78,17.56 4.1,1.63 10.03,0.88 13.36,-2.7 0.74,-0.79 1.36,-1.66 1.41,-3.08 0.06,-1.57 0.2,-2.58 0.2,-4.3z"/>
   <path class="fil0" d="M405.16 74.62c0,3.79 0.45,6.95 3.49,9.41 4.6,3.73 12.21,3.43 16.5,-0.37 1.66,-1.48 1.53,-1.11 1.51,-3.96 -0.02,-4.92 1.11,-2.1 2.15,-3.52 -1.03,-0.49 -5.08,-0.19 -6.65,-0.19l0 0.59c2.68,0 2.15,0.51 2.15,5.47 0,0.72 -1.96,1.96 -2.6,2.28 -4.24,2.12 -11.2,1.69 -13.35,-4.89 -0.19,-0.59 -0.37,-1.14 -0.43,-1.71 -0.36,-3.25 -0.15,-6.12 1.87,-8.82 2.34,-3.14 4.84,-3.07 8.07,-3.07 1.84,0 3.79,0.77 4.83,1.62 1.07,0.87 2.26,2.53 2.4,4.24l0.59 0c-1.25,-5.37 0.38,-4.79 -3.21,-6.17 -2.33,-0.9 -5.34,-1.24 -8.25,-0.79 -5.23,0.81 -9.07,4.75 -9.07,9.89z"/>
   <path class="fil0" d="M645.55 68.57c0.34,1.46 1.24,3.19 1.82,4.63l1.9 4.75 -7.62 0c0.07,-0.77 1.48,-3.79 1.87,-4.77l1.46 -3.43c0.08,-0.2 0.12,-0.28 0.24,-0.53l0.27 -0.52c0.01,-0.02 0.04,-0.08 0.07,-0.12zm-11.73 17.19l6.84 0c-2.29,-0.19 -1.77,-1.57 -1.2,-2.96 0.51,-1.25 1,-2.56 1.59,-3.68l8.8 0c0.62,2.69 3.91,6.33 0.19,6.64 0.5,0.69 1.73,0.39 3.52,0.39 1.3,0 2.61,0 3.91,0l0 -0.39c-2.32,-0.19 -2.99,-1.95 -3.96,-4.24 -0.87,-2.04 -1.76,-3.78 -2.6,-5.8 -0.44,-1.06 -0.81,-1.85 -1.26,-2.84l-2.57 -5.64c-0.21,-0.53 -0.43,-0.89 -0.69,-1.46 -0.33,-0.72 -0.24,-0.89 -0.85,-1.3l-7.69 16.93c-0.96,2.01 -1.35,4.14 -4.04,4.37z"/>
   <path class="fil0" d="M215.38 68.76c0.43,1.86 3.39,7.66 3.52,9.18l-7.62 0 1.96 -4.68c0.42,-0.95 1.46,-4 2.15,-4.5zm-11.92 17c0.41,0.56 0.34,0.41 1.35,0.41l5.49 -0.41c-3.4,-0.79 -0.34,-3.53 0.39,-6.64l8.99 0c0.25,2.97 3.92,5.77 0.2,6.64l7.43 0c-2.57,-0.21 -3.14,-2.16 -3.99,-4.21l-7.14 -15.71c-0.31,-0.71 -0.18,-0.92 -0.78,-1.36l-9.15 19.77c-0.66,0.95 -1.34,1.41 -2.77,1.53z"/>
   <path class="fil0" d="M600.21 65.05l-6.26 0c0.31,1.16 0.58,0.23 1.6,0.74 0.52,0.26 0.74,1.03 0.74,1.8l0 10.16c0,2.42 -0.48,4.26 -1.62,5.61 -2.99,3.56 -11.87,3.33 -11.87,-4.44l0 -11.92c0,-0.65 0.19,-1.04 0.72,-1.24 1.06,-0.4 1.15,0.36 1.43,-0.72l-6.84 0c0.37,1.4 1.69,-0.29 2.21,1.69 0.71,2.67 -0.7,12.47 0.78,15.63 0.43,0.91 1.03,1.72 1.81,2.3 3.66,2.71 9.03,2.68 12.41,0.11 5.51,-4.19 0.95,-18.07 3.45,-19.02 1.06,-0.4 1.15,0.36 1.43,-0.72z"/>
   <path class="fil0" d="M440.53 68.76l0.39 0c0.3,1.27 1.24,3.33 1.75,4.5 0.34,0.77 1.7,3.96 1.76,4.68l-7.62 0c0.27,-1.16 3.62,-8.11 3.71,-9.18zm-11.53 17l6.84 0c-3.44,-0.8 -0.33,-3.55 0.39,-6.64l8.79 0c0.4,0.76 0.66,1.61 1.04,2.47 1.24,2.76 1.52,3.66 -0.65,4.17l7.43 0c-1.37,-0.11 -2,-0.53 -2.66,-1.44l-9.06 -19.85c-0.68,0.46 -0.5,0.38 -0.76,1.19 -0.75,2.34 -5.95,12.88 -7.25,15.81 -0.9,2.02 -1.41,4.07 -4.11,4.29z"/>
   <path class="fil0" d="M284.37 68.76l0.39 0c0.09,1.11 3.41,7.84 3.52,9.18l-7.62 0c0.17,-0.74 0.59,-1.52 0.91,-2.21l2.8 -6.97zm-11.53 17l6.84 0c-3.44,-0.8 -0.33,-3.55 0.39,-6.64l8.8 0c0.55,1.04 1.95,4.33 1.95,5.47 0,0.78 -0.9,1.02 -1.57,1.17l5.87 0.4c1.03,0.01 1.13,0.17 1.55,-0.4 -2.4,-0.2 -3,-1.78 -3.96,-4.05l-6.39 -14.12c-0.22,-0.48 -0.35,-0.9 -0.59,-1.36 -0.27,-0.53 -0.53,-0.82 -0.59,-1.56 -0.93,0.08 -0.71,0.15 -0.96,0.99 -0.22,0.7 -0.34,0.98 -0.59,1.56 -0.45,1.02 -0.84,1.78 -1.31,2.79 -0.25,0.53 -0.33,0.84 -0.58,1.37l-4.76 10.09c-0.98,2 -1.28,4.07 -4.1,4.3z"/>
   <path class="fil0" d="M139.35 65.05c0.28,1.04 0.36,0.34 1.43,0.72 0.58,0.21 0.91,0.72 0.91,1.43l0 16.8c0,1.33 -1.12,1.66 -2.34,1.76l14.27 0.39c0.32,-0.67 0.7,-1.85 0.95,-2.56 0.28,-0.78 0.66,-1.82 1,-2.52 -1.71,0.14 -0.83,3.91 -6.25,3.91l-5.08 0 0 -8.79c5.29,0 7.17,-0.73 7.23,1.95l0 -5.08c-0.06,2.68 -1.94,1.95 -7.23,1.95l0 -8.79 7.04 0c1.34,0 1.76,0.95 1.76,2.34l0.59 0c0,-5.83 0.91,-3.5 -4.69,-3.52 -3.19,-0.01 -6.38,0 -9.58,0z"/>
   <path class="fil0" d="M386.2 65.05c0.26,0.99 0.23,0.39 1.28,0.68 0.49,0.13 1.07,0.57 1.07,1.08l0 17.19c0,1.26 -1.11,1.73 -2.34,1.76l14.27 0.39 1.95 -5.08c-1.29,0.14 -0.42,1.06 -2.37,2.71 -1.95,1.65 -5.91,1.2 -8.97,1.2l0 -8.79c5.27,0 7.23,-0.73 7.23,1.95l0 -5.08c0,2.68 -1.96,1.95 -7.23,1.95l0 -8.79 7.04 0c1.34,0 1.76,0.95 1.76,2.34l0.59 0 0 -4.1c-3.78,0.88 -10.01,0.59 -14.27,0.59z"/>
   <path class="fil0" d="M156.36 65.64c3.08,0 3.3,1.25 4.73,3.48l3.2 5c2.75,4.19 2.04,2.41 2.04,9.88 0,1.33 -1.12,1.66 -2.35,1.76l7.23 0c-0.59,-0.05 -1.11,-0.16 -1.53,-0.42 -0.31,-0.19 -0.81,-0.7 -0.81,-1.14 0,-7.95 -0.73,-5.75 2.19,-10.12 0.4,-0.59 0.7,-1.05 1.1,-1.64 1.12,-1.67 3.38,-5.8 4.97,-6.55 1.21,-0.57 1.8,0.28 2.1,-0.83l-7.43 0c0.36,1.35 1.56,-0.12 1.56,1.56 0,0.81 -2.04,3.82 -2.55,4.68l-2.72 4.7c-0.48,-0.35 -4.37,-7.36 -4.96,-8.54 -0.27,-0.54 -0.41,-1.03 0.01,-1.46 0.9,-0.93 1.09,0.35 1.43,-0.93l-8.21 0 0 0.59z"/>
   <path class="fil0" d="M366.65 61.73c0.48,0.65 2.74,0.29 2.74,2.34l0 19.53c0,1.46 -1.27,2.12 -2.74,2.15l14.66 0.39c0.42,-0.86 1.93,-4.96 1.95,-5.86 -1.15,0.77 -1.41,4.69 -6.45,4.69l-4.89 0 0 -21.1c0,-1.43 1.04,-1.76 2.54,-1.76l0 -0.59c-1.21,0 -7.39,-0.28 -7.82,0.2z"/>
   <path class="fil0" d="M707.12 69.15c0,1.82 0.06,3.2 1.73,4.52l2.88 2.2c1.34,1.01 5.17,3.44 5.17,5.19l0 0.98c0,2.69 -2.97,3.56 -5.31,3.36 -2.8,-0.24 -4.07,-1.9 -4.07,-4.92 -1.17,0.31 -0.98,2.59 -0.98,3.71 0,2.92 12.51,4.63 12.51,-3.32 0,-3.54 -4.12,-5.62 -7.54,-8.29 -2.09,-1.63 -2.43,-1.74 -2.43,-4.02 0,-3.23 8.01,-4.43 8.01,0.19l0.59 0c0,-3.72 0.43,-3.82 -0.96,-3.93 -2.55,-0.19 -5.54,-0.94 -7.89,1.14 -0.78,0.7 -1.71,1.78 -1.71,3.18z"/>
   <path class="fil0" d="M181.18 69.74c0,2.27 1.5,3.64 3.12,4.88 0.52,0.4 1.05,0.77 1.57,1.17 1.03,0.79 1.98,1.6 3.07,2.4 1.48,1.09 2.21,1.58 2.21,3.66 0,3.99 -6.12,4.49 -8.35,2.29 -0.86,-0.85 -1.03,-2.01 -1.03,-3.65l-0.59 0c-0.29,3.46 -1.76,4.92 2.91,5.88 8.72,1.81 10.78,-5.65 8.09,-8.67 -0.73,-0.82 -4.01,-3.25 -5.11,-4.08 -0.53,-0.39 -0.76,-0.62 -1.31,-1.03 -0.51,-0.39 -0.86,-0.6 -1.32,-1.03 -1.98,-1.88 -1.39,-4.61 1.05,-5.51 1.63,-0.6 5.56,-0.77 5.85,2.72l0.59 0c0,-1.6 -0.19,-2.38 -0.19,-3.91 -4.04,0 -6.49,-1.42 -9.43,1.9 -0.54,0.61 -1.12,1.93 -1.12,2.98z"/>
   <path class="fil0" d="M563.08 69.35c0,3.66 2.07,4.64 5.72,7.37 0.53,0.4 0.94,0.67 1.45,1.09 0.95,0.78 2.04,1.34 2.49,2.59 0.94,2.66 -0.83,4.9 -4.27,5.02 -3.2,0.11 -5,-1.49 -5,-4.94 -0.74,0.2 -0.65,0.52 -0.76,1.39 -0.3,2.31 -0.79,3.54 2.47,4.32 3.42,0.82 7.36,0.68 9.17,-2.64 1.16,-2.13 0.84,-5.01 -1.14,-6.56l-5.95 -4.6c-1.47,-1.1 -2.23,-1.55 -2.23,-3.63 0,-3.42 8.01,-4.67 8.01,0l0.59 0 0 -3.91c-2.6,0 -4.72,-0.73 -6.97,0.06 -1.7,0.59 -3.58,2.28 -3.58,4.43z"/>
   <path class="fil0" d="M258.18 64.07l0 19.53c0,0.7 -0.41,1.24 -0.78,1.56 -0.46,0.39 -1.12,0.57 -1.95,0.59l14.66 0.39c0.38,-0.78 1.93,-4.97 1.95,-5.86l-0.39 0c-0.57,2.46 -2.84,4.69 -5.86,4.69l-5.28 0 0 -20.32c0,-0.76 0.26,-1.48 0.62,-1.91 0.56,-0.66 0.98,-0.63 2.11,-0.63l0 -0.59 -7.82 0c0.3,1.13 0.58,0.21 1.69,0.85 0.5,0.29 1.05,0.95 1.05,1.69z"/>
   <path class="fil0" d="M224.96 68.57c1.05,-0.28 0.34,-0.36 0.72,-1.43 0.2,-0.58 0.72,-0.91 1.43,-0.91l6.26 0 0 17.58c0,1.38 -1.06,1.85 -2.35,1.95l7.23 0c-1.16,-0.1 -2.35,-0.5 -2.35,-1.76l0 -17.78c6.79,0 7.82,-0.75 7.82,2.34l0.59 0 0 -4.1c-3.88,0.91 -15.47,0.91 -19.35,0l0 4.1z"/>
   <path class="fil0" d="M22.28 68.57c1.04,-0.28 0.34,-0.36 0.72,-1.43 0.2,-0.58 0.72,-0.91 1.43,-0.91l6.26 0 0 17.58c0,1.33 -1.09,1.85 -2.35,1.95l7.23 0c-1.22,-0.1 -2.35,-0.43 -2.35,-1.76l0 -17.78c6.79,0 7.82,-0.75 7.82,2.34l0.59 0 0 -4.1c-3.88,0.91 -15.47,0.91 -19.35,0l0 4.1z"/>
   <path class="fil0" d="M616.82 68.57l0.39 0c0,-3.17 2.2,-2.34 8.01,-2.34l0 17.58c0,1.29 -1.25,1.93 -2.54,1.95l7.43 0c-1.67,-0.04 -2.54,-0.84 -2.54,-2.54l0 -16.99 6.64 0c0.42,0 0.84,0.39 1.05,0.7 0.32,0.49 0.32,0.9 0.32,1.64 0.99,-0.26 0.59,-1.63 0.59,-4.1 -0.82,0.07 -1.2,0.29 -2.15,0.4 -3.86,0.41 -13.5,0.47 -17.2,-0.4l0 4.1z"/>
   <path class="fil0" d="M43.58 68.57c0,-0.67 -0.01,-1.06 0.24,-1.52 0.19,-0.36 0.66,-0.83 1.12,-0.83l6.65 0 0 16.99c0,1.79 -0.88,2.4 -2.54,2.54l7.43 0c-1.29,-0.03 -2.54,-0.66 -2.54,-1.95l0 -17.58c5.81,0 8.02,-0.83 8.02,2.34l0.39 -4.1c-3.95,0.92 -15.47,0.91 -19.35,0 0,0.78 0,1.57 -0.01,2.35 -0.02,1.15 -0.26,1.52 0.59,1.75z"/>
   <path class="fil0" d="M685.43 68.57c0,-3.17 1.57,-2.34 8.01,-2.34l0 16.99c0,1.79 -0.88,2.4 -2.54,2.54l7.43 0c-1.29,-0.03 -2.54,-0.66 -2.54,-1.95l0 -17.58c5.81,0 8.01,-0.83 8.01,2.34l0.39 -4.1c-4.08,0.95 -10.07,0.59 -14.66,0.59 -2.4,0 -3.39,-0.48 -4.69,-0.59 0,2.47 -0.4,3.84 0.59,4.1z"/>
   <path class="fil0" d="M605.68 67.39l0 16.8c0,0.99 -1.39,1.54 -2.54,1.56l14.46 0.39 1.95 -5.08c-0.99,0.08 -0.77,0.44 -1.25,1.29 -1.94,3.38 -5.67,2.62 -10.28,2.62l0 -17c0,-3.19 2.19,-1.63 2.54,-2.93l-7.43 0c0.3,1.14 0.54,0.24 1.6,0.75 0.44,0.22 0.94,0.91 0.94,1.6z"/>
   <path class="fil0" d="M456.95 67.59l0 15.82c0,1.63 -0.96,2.31 -2.54,2.34l14.27 0.39 1.95 -5.08 -0.59 0c-1.11,4.76 -6.62,3.91 -10.75,3.91l0 -17.58c0,-1.57 1.31,-1.67 2.54,-1.95l-7.43 -0.39c0.31,1.16 0.62,0.18 1.69,0.85 0.41,0.26 0.85,1.08 0.85,1.69z"/>
  </g>
 </g>
</svg>
